<svg width="557" height="557" xmlns="http://www.w3.org/2000/svg" xmlns:xlink="http://www.w3.org/1999/xlink" overflow="hidden"><defs><clipPath id="clip0"><rect x="501" y="1854" width="557" height="557"/></clipPath></defs><g clip-path="url(#clip0)" transform="translate(-501 -1854)"><path d="M501 2132.5C501 1978.69 625.689 1854 779.5 1854 933.311 1854 1058 1978.69 1058 2132.5 1058 2286.31 933.311 2411 779.5 2411 625.689 2411 501 2286.31 501 2132.5Z" fill="#056F8C" fill-rule="evenodd"/><rect x="813" y="2127" width="50.0002" height="67" fill="#1A0100"/><path d="M743.447 2178C658.029 2204.67 658.029 2204.67 658.029 2204.67 658.029 2204.67 628.077 2210.22 620.312 2241.33 607 2298 607 2298 607 2298 778.945 2298 778.945 2298 778.945 2298 780.055 2298 780.055 2298 780.055 2298 952 2298 952 2298 952 2298 938.688 2241.33 938.688 2241.33 938.688 2241.33 930.923 2210.22 900.971 2204.67 900.971 2204.67 814.444 2178 814.444 2178 814.444 2178 743.447 2178 743.447 2178 743.447 2178" fill="#D3B6E8" fill-rule="evenodd"/><path d="M854.379 2190C900.971 2204.47 900.971 2204.47 900.971 2204.47 900.971 2204.47 930.923 2210.04 938.688 2241.22 952 2298 952 2298 952 2298 780.055 2298 780.055 2298 780.055 2298 778.945 2298 778.945 2298 778.945 2298 607 2298 607 2298 607 2298 620.312 2241.22 620.312 2241.22 620.312 2241.22 628.077 2210.04 658.029 2204.47 658.029 2204.47 703.511 2190 703.511 2190 703.511 2190 703.511 2190 767.852 2233.42 854.379 2190" fill="#D9D9D9" fill-rule="evenodd"/><path d="M777.279 2209C777.279 2209 777.279 2209 777.279 2209 777.279 2209 777.279 2209 777.279 2209 777.279 2209 777.279 2209 777.279 2209M704 2190C704 2190 704 2190 704 2190 704 2190 704 2190 704 2190 704 2190 704 2190 704 2190M855 2190C826.132 2204.53 799.485 2209 777.279 2209 799.485 2209 826.132 2204.53 855 2190 855 2190 855 2190 855 2190" fill="#B08A78" fill-rule="evenodd"/><path d="M854.579 2190C854.579 2190 854.579 2190 854.579 2190 825.66 2204.41 798.965 2208.85 776.719 2208.85 776.719 2208.85 776.719 2208.85 776.719 2208.85 776.719 2208.85 776.719 2208.85 776.719 2208.85 776.719 2208.85 776.719 2208.85 776.719 2208.85 776.719 2208.85 776.719 2208.85 776.719 2208.85 733.341 2208.85 704.421 2191.11 703.309 2190 703.309 2190 703.309 2190 703.309 2190 703.309 2190 703.309 2190 703.309 2190 657.705 2204.41 657.705 2204.41 657.705 2204.41 657.705 2204.41 629.898 2208.85 621 2237.67 622.112 2238.78 623.225 2239.89 624.337 2241 635.46 2221.04 657.705 2216.61 657.705 2216.61 703.309 2202.2 703.309 2202.2 703.309 2202.2 703.309 2202.2 732.228 2222.15 776.719 2222.15 798.965 2222.15 825.66 2216.61 854.579 2202.2 901.295 2216.61 901.295 2216.61 901.295 2216.61 901.295 2216.61 922.428 2221.04 933.551 2241 935.776 2239.89 936.888 2238.78 938 2237.67 929.102 2208.85 901.295 2204.41 901.295 2204.41 854.579 2190 854.579 2190 854.579 2190" fill="#A6A6A6" fill-rule="evenodd"/><path d="M868.476 2050.04C863 2089.08 863 2089.08 863 2089.08 882.714 2098 886 2052.27 886 2052.27 881.619 2040 868.476 2050.04 868.476 2050.04Z" fill="#ECB79E" fill-rule="evenodd"/><path d="M869.482 2015.32C869.482 2023.09 872.8 2029.75 873.906 2036.41 875.012 2045.29 871.694 2053.06 868.376 2060.84 859.529 2078.6 855.106 2099.7 858.423 2118.57 860.635 2127.45 863.953 2134.11 869.482 2140.78 875.012 2147.44 881.647 2151.88 883.859 2159.65 889.388 2180.75 872.8 2185.19 862.847 2198.51 854 2210.72 855.106 2236.26 860.635 2250.69 868.376 2272.9 899.341 2281.78 920.353 2282.89 928.094 2282.89 936.941 2284 942.471 2277.34 946.894 2271.79 948 2261.79 944.682 2256.24 942.471 2250.69 938.047 2249.58 933.624 2246.25 928.094 2241.81 923.671 2236.26 920.353 2230.71 910.4 2218.49 908.188 2201.84 919.247 2188.52 928.094 2177.41 938.047 2169.64 935.835 2152.99 934.729 2131.89 911.506 2121.9 899.341 2108.58 887.176 2096.36 898.235 2084.15 903.765 2070.83 908.188 2061.95 912.612 2053.06 911.506 2041.96 909.294 2019.76 892.706 2008.65 880.541 1992" fill="#321B0B" fill-rule="evenodd"/><path d="M842.907 2016.46C842.907 2024.24 846.256 2030.91 847.372 2038.69 847.372 2047.58 844.023 2056.48 839.558 2064.26 829.512 2080.93 823.93 2103.16 826.163 2123.16 827.279 2133.17 830.628 2139.84 836.209 2147.62 841.791 2154.29 848.488 2158.73 849.605 2167.62 855.186 2189.85 837.326 2193.19 825.047 2207.64 815 2219.86 815 2246.54 819.465 2260.99 827.279 2285.44 858.535 2295.44 880.86 2298.78 889.791 2298.78 898.721 2301 904.302 2294.33 909.884 2288.77 911 2278.77 908.767 2272.1 906.535 2265.43 900.953 2264.32 896.488 2260.99 892.023 2256.54 887.558 2249.87 884.209 2244.31 874.163 2230.98 873.047 2213.19 885.326 2199.86 896.488 2188.74 906.535 2180.96 905.419 2163.18 905.419 2142.06 881.977 2130.94 869.698 2115.38 857.419 2100.93 869.698 2089.82 876.395 2076.48 881.977 2066.48 883.093 2057.59 886.442 2046.47 892.023 2019.8 885.326 1980.9 874.163 1962" fill="#3C2415" fill-rule="evenodd"/><path d="M703 2088C703 2088 708.556 2151.25 753 2169 753 2145.7 753 2145.7 753 2145.7 753 2145.7 723 2119.07 710.778 2090.22 710.778 2090.22 706.333 2091.33 703 2088Z" fill="#1A0100" fill-rule="evenodd"/><rect x="745" y="2140" width="71.0002" height="41.0002" fill="#D3B6E8"/><path d="M816 2140C745 2140 745 2140 745 2140 745 2170.9 745 2170.9 745 2170.9 749.437 2172 754.984 2172 760.531 2172 761.641 2172 762.75 2172 764.969 2172 776.062 2172 787.156 2167.59 796.031 2162.07 803.797 2157.66 809.344 2152.14 813.781 2146.62 814.891 2144.41 814.891 2143.31 816 2142.21 816 2140 816 2140 816 2140" fill="#D3B6E8" fill-rule="evenodd"/><path d="M869 2027.96C869 1961.6 828.975 1924 780.056 1924 778.944 1924 778.944 1924 778.944 1924 778.944 1924 778.944 1924 778.944 1924 778.944 1924 778.944 1924 778.944 1924 778.944 1924 778.944 1924 778.944 1924 730.025 1924 690 1961.6 690 2027.96 690 2113.12 752.261 2164 778.944 2164 778.944 2164 778.944 2164 778.944 2164 778.944 2164 778.944 2164 778.944 2164 778.944 2164 778.944 2164 778.944 2164 778.944 2164 778.944 2164 778.944 2164 806.739 2164 869 2113.12 869 2027.96Z" fill="#DAC2EC" fill-rule="evenodd"/><path d="M860.476 2051.94C855 2091.06 855 2091.06 855 2091.06 874.714 2100 878 2054.18 878 2054.18 873.619 2043 860.476 2051.94 860.476 2051.94Z" fill="#DAC2EC" fill-rule="evenodd"/><path d="M683 2054.18C683 2054.18 686.286 2100 706 2091.06 701.619 2051.94 701.619 2051.94 701.619 2051.94 701.619 2051.94 688.476 2043 683 2054.18Z" fill="#DAC2EC" fill-rule="evenodd"/><path d="M737.137 2031C717.288 2031 705 2038.44 705 2046.81 705 2058.89 709.726 2079.35 729.575 2081.21 748.48 2084 774 2076.56 774 2044.95 774 2037.51 757.932 2031 737.137 2031ZM730.521 2077.49C713.507 2075.63 709.726 2058.89 709.726 2047.74 709.726 2041.23 720.123 2034.72 738.082 2034.72 755.096 2034.72 769.274 2040.3 769.274 2046.81 769.274 2073.77 747.534 2080.28 730.521 2077.49Z" fill-rule="evenodd"/><path d="M787 2053C787 2053 786 2048.33 779 2048.33 774 2048.33 773 2053 773 2053 771 2039 771 2039 771 2039 771 2039 774 2041.8 776 2041.8 778 2041.8 780 2042.73 783 2041.8 785 2041.8 787 2039 787 2039L787 2053Z" fill-rule="evenodd"/><path d="M709 2061C709 2061 701 2061 701 2057.18 701 2053.36 701 2051.45 701 2045.73 701 2040 709 2041.91 709 2041.91L709 2061Z" fill-rule="evenodd"/><path d="M783 2044.95C783 2076.56 807.575 2084 827.425 2081.21 847.274 2079.35 852 2058.89 852 2046.81 852 2038.44 838.767 2031 818.918 2031 799.069 2031 783 2037.51 783 2044.95ZM787.726 2046.81C787.726 2040.3 801.904 2034.72 818.918 2034.72 835.932 2034.72 846.329 2041.23 846.329 2047.74 846.329 2058.89 842.548 2075.63 825.534 2077.49 809.466 2080.28 787.726 2073.77 787.726 2046.81Z" fill-rule="evenodd"/><path d="M850 2061C850 2061 856 2061 856 2057.18 856 2053.36 856 2051.45 856 2045.73 856 2040 850 2041.91 850 2041.91L850 2061Z" fill-rule="evenodd"/><path d="M731.894 1966.67C731.894 1966.67 815.279 1905.64 824.174 1994.41 824.174 1994.41 837.515 2051 877.54 2046.56 877.54 2046.56 902 1989.97 854.193 1931.16 854.193 1931.16 820.838 1889 771.919 1903.42 771.919 1903.42 723 1921.18 731.894 1966.67Z" fill="#3C2415" fill-rule="evenodd"/><path d="M742 1928C742 1928 732.06 1955.73 736.478 1964.6 736.478 1964.6 703.343 1977.91 700.03 2046.67 700.03 2046.67 696.716 2045.56 693.403 2050 693.403 2050 668 1953.51 742 1928Z" fill="#392212" fill-rule="evenodd"/><path d="M732 1966.7C732 1966.7 800.596 1932.51 826.043 2002 826.043 2002 836 1895 732 1966.7Z" fill="#200700" fill-rule="evenodd"/></g></svg>